<svg xmlns="http://www.w3.org/2000/svg" width="32.639" height="30.128" viewBox="0 0 32.639 30.128">
  <path id="Icon_ionic-ios-leaf" data-name="Icon ionic-ios-leaf" d="M35.222,29.192c-4.064-.628-4.37-.918-4.37-.918,1.224-5.806-1.758-11.855-5.987-15.347C19.232,8.282,10.672,11.656,4,4.594c-1.554-1.648-.651,18.477,7.7,26.1a14.676,14.676,0,0,0,15.261,2.95A8.737,8.737,0,0,0,30,30.988,23.026,23.026,0,0,0,34.861,32.1C36.007,32.244,36.587,29.4,35.222,29.192Zm-7.2.581c-6.1-1.828-11.4-6.355-14.837-9.9a.32.32,0,0,1,.432-.471A47.714,47.714,0,0,0,28.78,27.866,2.926,2.926,0,0,1,28.019,29.772Z" transform="translate(-3.376 -4.499)" fill="#939482"/>
</svg>
