<svg xmlns="http://www.w3.org/2000/svg" width="103.593" height="90.125" viewBox="0 0 103.593 90.125">
  <g id="Grupo_1725" data-name="Grupo 1725" transform="translate(-101 -116.375)">
    <path  d="M109.067,46.306A19.741,19.741,0,1,1,89.326,66.047,19.74,19.74,0,0,1,109.067,46.306Zm0-12.146a1.522,1.522,0,0,1,1.519,1.519v4.557a1.519,1.519,0,1,1-3.038,0V35.679A1.522,1.522,0,0,1,109.067,34.16ZM78.7,64.528h4.557a1.519,1.519,0,0,1,0,3.038H78.7a1.519,1.519,0,0,1,0-3.038ZM88.837,43.667,91.875,46.7a1.52,1.52,0,0,1-2.15,2.15l-3.038-3.038a1.52,1.52,0,0,1,2.15-2.15Zm40.461,0L126.259,46.7a1.52,1.52,0,0,0,2.15,2.15l3.038-3.038a1.52,1.52,0,0,0-2.15-2.15ZM88.837,88.421l3.038-3.038a1.52,1.52,0,0,0-2.15-2.15l-3.038,3.038a1.52,1.52,0,0,0,2.15,2.15Zm45.674-23.848h4.557a1.519,1.519,0,1,1,0,3.038h-4.557a1.519,1.519,0,0,1,0-3.038Zm-6.533,18.235,3.038,3.038a1.52,1.52,0,0,1-2.15,2.15l-3.038-3.038a1.52,1.52,0,0,1,2.15-2.15Zm-18.866,7.808a1.522,1.522,0,0,1,1.519,1.519v4.557a1.519,1.519,0,0,1-3.038,0V92.135A1.522,1.522,0,0,1,109.112,90.616Z" transform="translate(53.085 99.603) rotate(-7)" fill="#3c423a" fill-rule="evenodd"/>
    <path  d="M105.667,46.306A16.341,16.341,0,1,1,89.326,62.647,16.34,16.34,0,0,1,105.667,46.306Z" transform="translate(63.739 89.24)" fill="#d0d7bf" fill-rule="evenodd"/>
    <path id="Trazado_89" data-name="Trazado 89" d="M87.595,88.968c-.573,0-1.133.032-1.693.077a31.863,31.863,0,1,0-30.49,41.117H88.56c11.2,0,19.31-9.719,19.31-20.919A20.273,20.273,0,0,0,87.595,88.968Z" transform="translate(79.45 74.337)" fill="#d0d7bf" stroke="#3c423a" stroke-width="4"/>
  </g>
</svg>
