<svg id="Group_93" data-name="Group 93" xmlns="http://www.w3.org/2000/svg" xmlns:xlink="http://www.w3.org/1999/xlink" width="74.901" height="62.057" viewBox="0 0 74.901 62.057">
  <defs>
    <radialGradient id="radial-gradient" cx="0.5" cy="0.5" r="0.5" gradientUnits="objectBoundingBox">
      <stop offset="0" stop-color="#36fff1"/>
      <stop offset="1" stop-color="#1159ff"/>
    </radialGradient>
    <radialGradient id="radial-gradient-2" cx="0.517" cy="0.5" fx="0.0902060866355896" fy="0.16570401191711426" r="0.762" gradientTransform="translate(0.122) scale(0.756 1)" gradientUnits="objectBoundingBox">
      <stop offset="0.345" stop-color="#fff"/>
      <stop offset="0.581" stop-color="#fcfcfc"/>
      <stop offset="0.811" stop-color="#f2f2f2"/>
      <stop offset="0.975" stop-color="#e7e6e6"/>
    </radialGradient>
  </defs>
  <path id="Icon_open-moon" data-name="Icon open-moon" d="M11.659,0A17.121,17.121,0,1,0,33.348,21.689a17.75,17.75,0,0,1-5.487.943A17.141,17.141,0,0,1,10.716,5.487,16.571,16.571,0,0,1,11.659,0Z" transform="translate(41.553 0)" fill="url(#radial-gradient)"/>
  <g id="sunny" transform="translate(0 12.338)">
    <path id="Path_89" data-name="Path 89" d="M73.52,84.017c-.447,0-.884.025-1.321.06a24.861,24.861,0,1,0-23.79,32.081H74.274c8.739,0,15.066-7.583,15.066-16.322A15.818,15.818,0,0,0,73.52,84.017Z" transform="translate(-23.55 -66.44)" fill="url(#radial-gradient-2)"/>
  </g>
</svg>
