<svg xmlns="http://www.w3.org/2000/svg" width="101.157" height="84.732" viewBox="0 0 101.157 84.732">
  <g id="Grupo_1702" data-name="Grupo 1702" transform="translate(-274 -261.768)">
    <path id="Icon_open-moon" data-name="Icon open-moon" d="M14.943,0a21.944,21.944,0,1,0,27.8,27.8,22.749,22.749,0,0,1-7.032,1.209A21.968,21.968,0,0,1,13.734,7.032,21.239,21.239,0,0,1,14.943,0Z" transform="translate(329.257 264.964)" fill="none" stroke="#3c423a" stroke-width="4"/>
    <g id="sunny" transform="translate(252.45 225.84)">
      <path id="Trazado_89" data-name="Trazado 89" d="M87.595,88.968c-.573,0-1.133.032-1.693.077a31.863,31.863,0,1,0-30.49,41.117H88.56c11.2,0,19.31-9.719,19.31-20.919A20.273,20.273,0,0,0,87.595,88.968Z" transform="translate(0 -11.503)" fill="#d0d7bf" stroke="#3c423a" stroke-width="4"/>
    </g>
  </g>
</svg>
