<svg xmlns="http://www.w3.org/2000/svg" xmlns:xlink="http://www.w3.org/1999/xlink" width="128.413" height="110.806" viewBox="0 0 128.413 110.806">
  <defs>
    <radialGradient id="radial-gradient" cx="0.5" cy="0.5" fx="0.7463607788085938" fy="0.5397146344184875" r="0.498" gradientTransform="translate(-0.005) scale(1.01 1)" gradientUnits="objectBoundingBox">
      <stop offset="0.216" stop-color="#fddb4b"/>
      <stop offset="0.329" stop-color="#fdd84b"/>
      <stop offset="0.437" stop-color="#fcd14b"/>
      <stop offset="0.543" stop-color="#fac44c"/>
      <stop offset="0.647" stop-color="#f8b14b"/>
      <stop offset="0.696" stop-color="#f6a54a"/>
    </radialGradient>
    <radialGradient id="radial-gradient-2" cx="0.517" cy="0.5" fx="0.0902060866355896" fy="0.16570401191711426" r="0.762" gradientTransform="translate(0.122) scale(0.756 1)" gradientUnits="objectBoundingBox">
      <stop offset="0.345" stop-color="#fff"/>
      <stop offset="0.581" stop-color="#fcfcfc"/>
      <stop offset="0.811" stop-color="#f2f2f2"/>
      <stop offset="0.975" stop-color="#e7e6e6"/>
    </radialGradient>
  </defs>
  <path id="椭圆_62-2_2_" d="M118.994,50.087A25.887,25.887,0,1,1,93.107,75.974,25.885,25.885,0,0,1,118.994,50.087Zm0-15.927a2,2,0,0,1,1.992,1.992v5.976a1.992,1.992,0,1,1-3.984,0V36.152A2,2,0,0,1,118.994,34.16ZM79.172,73.982h5.976a1.992,1.992,0,0,1,0,3.984H79.172a1.992,1.992,0,1,1,0-3.984ZM92.466,46.627,96.45,50.61A1.993,1.993,0,0,1,93.63,53.43l-3.984-3.984a1.993,1.993,0,1,1,2.819-2.819Zm53.057,0-3.984,3.984a1.993,1.993,0,0,0,2.819,2.819l3.984-3.984a1.993,1.993,0,0,0-2.819-2.819ZM92.466,105.313l3.984-3.984A1.993,1.993,0,0,0,93.63,98.51l-3.984,3.984a1.993,1.993,0,0,0,2.819,2.819Zm59.893-31.272h5.976a1.992,1.992,0,1,1,0,3.984h-5.976a1.992,1.992,0,0,1,0-3.984Zm-8.567,23.912,3.984,3.984a1.993,1.993,0,0,1-2.819,2.819l-3.984-3.984a1.993,1.993,0,0,1,2.819-2.819Zm-24.739,10.238a2,2,0,0,1,1.992,1.992v5.976a1.992,1.992,0,1,1-3.984,0v-5.976A2,2,0,0,1,119.053,108.191Z" transform="translate(-31.914 -34.16)" fill-rule="evenodd" fill="url(#radial-gradient)"/>
  <path id="Path_89" data-name="Path 89" d="M107.533,95.982c-.751,0-1.486.042-2.22.1A41.782,41.782,0,1,0,65.33,150H108.8c14.686,0,25.321-12.745,25.321-27.432A26.584,26.584,0,0,0,107.533,95.982Z" transform="translate(-23.55 -39.194)" fill="url(#radial-gradient-2)"/>
</svg>
