
<svg xmlns="http://www.w3.org/2000/svg" 
width="25.035" 
height="32.547" 
viewBox="0 0 25.035 32.547">
  <path id="Icon_ionic-ios-water" 
  data-name="Icon ionic-ios-water"
   d="M26.778,11.073a34.985,34.985,0,0,0-7.1-7.557.669.669,0,0,0-.814-.008,34.556,34.556,0,0,0-7.08,7.55c-2.918,4.068-4.929,8.481-5.023,13.37,0,.094-.008.2-.008.289A10.224,10.224,0,0,0,7.6,28.794a10.993,10.993,0,0,0,1.189,2.058,12.915,12.915,0,0,0,10.468,5.07c6.916,0,12.525-5.015,12.525-11.2C31.785,19.734,29.673,15.157,26.778,11.073ZM20.05,31.751h-.039a.686.686,0,0,1-.2-1.338,9.741,9.741,0,0,0,6.759-6.321.681.681,0,0,1,1.314.243v.11A7.591,7.591,0,0,1,20.05,31.751Z" transform="translate(-6.75 -3.374)" fill="#939482"/>
</svg>
