<svg xmlns="http://www.w3.org/2000/svg" 
width="24.339" 
height="20.997" 
viewBox="0 0 24.339 20.997">
  <path 
  id="Union_2" 
  data-name="Union 2" 
  d="M19.777,5878.787l-.741-.741a2.141,2.141,0,0,0,.878-3.078c-.2-.312-.5-.785-.862-1.341a7.587,7.587,0,0,0,.783-2.75h4.5a12.106,12.106,0,0,1-3.551,7.91.714.714,0,0,1-1.011,0Zm-16.225,0A12.1,12.1,0,0,1,0,5870.877H4.5a7.656,7.656,0,0,0,2.223,4.736.715.715,0,0,1,0,1.01l-2.164,2.163a.712.712,0,0,1-1.009,0Zm14.176-2.068a81.8,81.8,0,0,1-7.143-4.958,2.241,2.241,0,1,1,3.169-3.169,81.8,81.8,0,0,1,4.957,7.143.713.713,0,0,1-.984.984Zm2.11-7.267a7.635,7.635,0,0,0-1.744-4.2l3.181-3.183a12.079,12.079,0,0,1,3.063,7.385Zm-19.837,0a12.089,12.089,0,0,1,3.064-7.385l3.181,3.183a7.613,7.613,0,0,0-1.744,4.2Zm12.882-6.952V5858a12.081,12.081,0,0,1,7.383,3.06l-3.181,3.182A7.628,7.628,0,0,0,12.882,5862.5Zm-8.81-1.44a12.088,12.088,0,0,1,7.385-3.06v4.5a7.623,7.623,0,0,0-4.2,1.742Z" transform="translate(0 -5858)" fill="#939482"/>
</svg>
