<svg xmlns="http://www.w3.org/2000/svg" xmlns:xlink="http://www.w3.org/1999/xlink" width="74.246" height="75" viewBox="0 0 74.246 75">
  <defs>
    <radialGradient id="radial-gradient" cx="0.5" cy="0.5" fx="0.7463607788085938" fy="0.5397146344184875" r="0.498" gradientTransform="translate(-0.005) scale(1.01 1)" gradientUnits="objectBoundingBox">
      <stop offset="0.216" stop-color="#fddb4b"/>
      <stop offset="0.329" stop-color="#fdd84b"/>
      <stop offset="0.437" stop-color="#fcd14b"/>
      <stop offset="0.543" stop-color="#fac44c"/>
      <stop offset="0.647" stop-color="#f8b14b"/>
      <stop offset="0.696" stop-color="#f6a54a"/>
    </radialGradient>
  </defs>
  <path id="椭圆_62-2_2_" d="M114.518,48.382A23.116,23.116,0,1,1,91.4,71.5,23.114,23.114,0,0,1,114.518,48.382Zm0-14.222a1.782,1.782,0,0,1,1.779,1.779v5.336a1.779,1.779,0,1,1-3.557,0V35.939A1.782,1.782,0,0,1,114.518,34.16ZM78.959,69.719h5.336a1.779,1.779,0,1,1,0,3.557H78.959a1.779,1.779,0,1,1,0-3.557ZM90.829,45.292l3.557,3.557a1.78,1.78,0,0,1-2.517,2.517l-3.557-3.557a1.78,1.78,0,1,1,2.517-2.517Zm47.377,0-3.557,3.557a1.78,1.78,0,0,0,2.517,2.517l3.557-3.557a1.78,1.78,0,1,0-2.517-2.517ZM90.829,97.7l3.557-3.557a1.78,1.78,0,1,0-2.517-2.517l-3.557,3.557A1.78,1.78,0,0,0,90.829,97.7Zm53.482-27.924h5.336a1.779,1.779,0,1,1,0,3.557h-5.336a1.779,1.779,0,0,1,0-3.557Zm-7.65,21.352,3.557,3.557A1.78,1.78,0,1,1,137.7,97.2l-3.557-3.557a1.78,1.78,0,0,1,2.517-2.517Zm-22.091,9.142a1.782,1.782,0,0,1,1.779,1.779v5.336a1.779,1.779,0,0,1-3.557,0v-5.336A1.782,1.782,0,0,1,114.571,100.266Z" transform="translate(-77.18 -34.16)" fill-rule="evenodd" fill="url(#radial-gradient)"/>
</svg>
