<svg xmlns="http://www.w3.org/2000/svg" width="96.554" height="97.534" viewBox="0 0 96.554 97.534">
  <g id="Grupo_1701" data-name="Grupo 1701" transform="translate(-83.285 16.669)">
    <path d="M125.736,52.655A30.061,30.061,0,1,1,95.675,82.716,30.059,30.059,0,0,1,125.736,52.655Zm0-18.5a2.317,2.317,0,0,1,2.313,2.313v6.939a2.313,2.313,0,1,1-4.626,0V36.473A2.317,2.317,0,0,1,125.736,34.16ZM79.493,80.4h6.939a2.313,2.313,0,0,1,0,4.626H79.493a2.313,2.313,0,0,1,0-4.626ZM94.93,48.637l4.626,4.626a2.315,2.315,0,0,1-3.274,3.274L91.657,51.91a2.315,2.315,0,0,1,3.274-3.274Zm61.612,0-4.626,4.626a2.315,2.315,0,1,0,3.274,3.274l4.626-4.626a2.315,2.315,0,1,0-3.274-3.274ZM94.93,116.786l4.626-4.626a2.315,2.315,0,0,0-3.274-3.274l-4.626,4.626a2.315,2.315,0,0,0,3.274,3.274Zm69.551-36.314h6.939a2.313,2.313,0,1,1,0,4.626h-6.939a2.313,2.313,0,0,1,0-4.626Zm-9.948,27.768,4.626,4.626a2.315,2.315,0,1,1-3.274,3.274l-4.626-4.626a2.315,2.315,0,0,1,3.274-3.274Zm-28.728,11.889a2.317,2.317,0,0,1,2.313,2.313v6.939a2.313,2.313,0,1,1-4.626,0v-6.939A2.317,2.317,0,0,1,125.805,120.129Z" transform="translate(6.105 -50.829)" fill="#3c423a" fill-rule="evenodd"/>
    <path  data-name="椭圆_62-2_2_" d="M115.3,46.306A25.971,25.971,0,1,1,89.326,72.277,25.97,25.97,0,0,1,115.3,46.306Z" transform="translate(16.544 -40.389)" fill="#d0d7bf" fill-rule="evenodd"/>
  </g>
</svg>
