<svg 
xmlns="http://www.w3.org/2000/svg"
 width="33.181"
  height="22.12"
  viewBox="0 0 33.181 22.12">
  <path id="Icon_awesome-eye" data-name="Icon awesome-eye" d="M32.98,14.719A18.476,18.476,0,0,0,16.59,4.5,18.479,18.479,0,0,0,.2,14.72,1.864,1.864,0,0,0,.2,16.4,18.476,18.476,0,0,0,16.59,26.62,18.479,18.479,0,0,0,32.98,16.4,1.864,1.864,0,0,0,32.98,14.719ZM16.59,23.855a8.3,8.3,0,1,1,8.3-8.3A8.3,8.3,0,0,1,16.59,23.855Zm0-13.825a5.49,5.49,0,0,0-1.458.218A2.756,2.756,0,0,1,11.279,14.1,5.517,5.517,0,1,0,16.59,10.03Z" transform="translate(0 -4.5)" fill="#939482"/>
</svg>
