<svg xmlns="http://www.w3.org/2000/svg" width="29.794" height="20.627" viewBox="0 0 29.794 20.627">
  <path id="Icon_metro-wind" data-name="Icon metro-wind" d="M32.723,14.224A3.405,3.405,0,0,0,29.5,18.808H7.512a1.146,1.146,0,1,0,0,2.292H32.723a3.438,3.438,0,1,0,0-6.876ZM7.512,16.516H21.264a3.486,3.486,0,1,0-3.227-2.292H7.512a1.146,1.146,0,0,0,0,2.292Zm18.335,6.876c-.067,0-.131.015-.2.021-.045,0-.082-.021-.127-.021H7.841a1.341,1.341,0,0,0-1.474,1.146,1.341,1.341,0,0,0,1.474,1.146H22.62a3.43,3.43,0,1,0,3.227-2.292Z" transform="translate(-6.367 -9.64)" fill="#939482"/>
</svg>
